<?xml version="1.0" standalone="no"?>
<!DOCTYPE svg PUBLIC "-//W3C//DTD SVG 1.1//EN"
"http://www.w3.org/Graphics/SVG/1.1/DTD/svg11.dtd">

<svg width="508" height="897" view_box="0 0 508 897"
xmlns="http://www.w3.org/2000/svg"
xmlns:link="http://www.w3.org/1999/xlink">\n\n<desc>Généré par Mocodo 2.3.7 le Tue, 18 Jan 2022 04:22:17</desc>

<rect id="frame" x="0" y="0" width="508" height="897" fill="#ffffbf" stroke="none" stroke-width="0"/>

<!-- Association ROLE_CUSTOMER -->
<line x1="320" y1="541" x2="320" y2="245" stroke="#66c2a5" stroke-width="2"/>
<text x="325.0" y="440" fill="#d53e4f" font-family="Verdana" font-size="12">1,1</text>
<line x1="320" y1="102" x2="320" y2="245" stroke="#66c2a5" stroke-width="2"/>
<text x="325.0" y="153" fill="#d53e4f" font-family="Verdana" font-size="12">1,N</text>
<g id="association-ROLE_CUSTOMER">
	<path d="M 368 220 a 14 14 90 0 1 14 14 V 245 h -124 V 234 a 14 14 90 0 1 14 -14" fill="#abdda4" stroke="#abdda4" stroke-width="0"/>
	<path d="M 382 245.0 v 11 a 14 14 90 0 1 -14 14 H 272 a 14 14 90 0 1 -14 -14 V 245.0 H 124" fill="#e6f598" stroke="#e6f598" stroke-width="0"/>
	<rect x="258" y="220" width="124" height="50" fill="none" rx="14" stroke="#66c2a5" stroke-width="2"/>
	<line x1="258" y1="245" x2="382" y2="245" stroke="#66c2a5" stroke-width="1"/>
	<text x="265" y="237.7" fill="#000000" font-family="Verdana" font-size="12">ROLE_CUSTOMER</text>
</g>

<!-- Association A HOMESITTER -->
<path d="M320 541 C 362.666666667 580.0 362.666666667 681.666666667 320 846" fill="none" stroke="#66c2a5" stroke-width="2"/>
<text x="325.0" y="651" fill="#d53e4f" font-family="Verdana" font-size="12">0,N</text>
<path d="M320 541 C 277.333333333 580.0 277.333333333 681.666666667 320 846" fill="none" stroke="#66c2a5" stroke-width="2"/>
<text x="293.0" y="651" fill="#d53e4f" font-family="Verdana" font-size="12" onmouseover="show(evt,'homesitter')" onmouseout="hide(evt)" style="cursor: pointer;">0,N</text>
<path d="M 288.226364613 634.006240115 L 293.775795603 646.221141493 L 287.928754106 642.000702447 L 281.784102104 645.774725734 Z" fill="#66c2a5" stroke-width="0"/>
<g id="association-A HOMESITTER">
	<path d="M 360 821 a 14 14 90 0 1 14 14 V 846 h -108 V 835 a 14 14 90 0 1 14 -14" fill="#abdda4" stroke="#abdda4" stroke-width="0"/>
	<path d="M 374 846.0 v 11 a 14 14 90 0 1 -14 14 H 280 a 14 14 90 0 1 -14 -14 V 846.0 H 108" fill="#e6f598" stroke="#e6f598" stroke-width="0"/>
	<rect x="266" y="821" width="108" height="50" fill="none" rx="14" stroke="#66c2a5" stroke-width="2"/>
	<line x1="266" y1="846" x2="374" y2="846" stroke="#66c2a5" stroke-width="1"/>
	<text x="273" y="838.7" fill="#000000" font-family="Verdana" font-size="12">A HOMESITTER</text>
</g>

<!-- Association CAN HAVE -->
<line x1="320" y1="541" x2="453" y2="245" stroke="#66c2a5" stroke-width="2"/>
<text x="338.306399435" y="440" fill="#d53e4f" font-family="Verdana" font-size="12">0,N</text>
<line x1="453" y1="102" x2="453" y2="245" stroke="#66c2a5" stroke-width="2"/>
<text x="458.0" y="212" fill="#d53e4f" font-family="Verdana" font-size="12">1,1</text>
<g id="association-CAN HAVE">
	<path d="M 478 220 a 14 14 90 0 1 14 14 V 245 h -78 V 234 a 14 14 90 0 1 14 -14" fill="#abdda4" stroke="#abdda4" stroke-width="0"/>
	<path d="M 492 245.0 v 11 a 14 14 90 0 1 -14 14 H 428 a 14 14 90 0 1 -14 -14 V 245.0 H 78" fill="#e6f598" stroke="#e6f598" stroke-width="0"/>
	<rect x="414" y="220" width="78" height="50" fill="none" rx="14" stroke="#66c2a5" stroke-width="2"/>
	<line x1="414" y1="245" x2="492" y2="245" stroke="#66c2a5" stroke-width="1"/>
	<text x="421" y="237.7" fill="#000000" font-family="Verdana" font-size="12">CAN HAVE</text>
</g>

<!-- Association DF1 -->
<line x1="69" y1="541" x2="69" y2="846" stroke="#66c2a5" stroke-width="2"/>
<text x="74.0" y="804" fill="#d53e4f" font-family="Verdana" font-size="12">1,1</text>
<line x1="181" y1="846" x2="69" y2="846" stroke="#66c2a5" stroke-width="2"/>
<text x="101" y="863.0" fill="#d53e4f" font-family="Verdana" font-size="12">1,N</text>
<g id="association-DF1">
	<circle cx="69" cy="846" r="16" stroke="#66c2a5" stroke-width="2" fill="#abdda4"/>
	<text x="60" y="850.0" fill="#000000" font-family="Verdana" font-size="12">DF</text>
</g>

<!-- Association CAN BE -->
<line x1="320" y1="541" x2="453" y2="541" stroke="#66c2a5" stroke-width="2"/>
<text x="376" y="558.0" fill="#d53e4f" font-family="Verdana" font-size="12">0,N</text>
<line x1="453" y1="846" x2="453" y2="541" stroke="#66c2a5" stroke-width="2"/>
<text x="458.0" y="796" fill="#d53e4f" font-family="Verdana" font-size="12">1,1</text>
<g id="association-CAN BE">
	<path d="M 470 516 a 14 14 90 0 1 14 14 V 541 h -62 V 530 a 14 14 90 0 1 14 -14" fill="#abdda4" stroke="#abdda4" stroke-width="0"/>
	<path d="M 484 541.0 v 11 a 14 14 90 0 1 -14 14 H 436 a 14 14 90 0 1 -14 -14 V 541.0 H 62" fill="#e6f598" stroke="#e6f598" stroke-width="0"/>
	<rect x="422" y="516" width="62" height="50" fill="none" rx="14" stroke="#66c2a5" stroke-width="2"/>
	<line x1="422" y1="541" x2="484" y2="541" stroke="#66c2a5" stroke-width="1"/>
	<text x="429" y="533.7" fill="#000000" font-family="Verdana" font-size="12">CAN BE</text>
</g>

<!-- Association CAN HAVE1 -->
<line x1="320" y1="541" x2="181" y2="245" stroke="#66c2a5" stroke-width="2"/>
<text x="277.651520666" y="440" fill="#d53e4f" font-family="Verdana" font-size="12">0,N</text>
<line x1="181" y1="102" x2="181" y2="245" stroke="#66c2a5" stroke-width="2"/>
<text x="186.0" y="195" fill="#d53e4f" font-family="Verdana" font-size="12">1,1</text>
<g id="association-CAN HAVE1">
	<path d="M 206 220 a 14 14 90 0 1 14 14 V 245 h -78 V 234 a 14 14 90 0 1 14 -14" fill="#abdda4" stroke="#abdda4" stroke-width="0"/>
	<path d="M 220 245.0 v 11 a 14 14 90 0 1 -14 14 H 156 a 14 14 90 0 1 -14 -14 V 245.0 H 78" fill="#e6f598" stroke="#e6f598" stroke-width="0"/>
	<rect x="142" y="220" width="78" height="50" fill="none" rx="14" stroke="#66c2a5" stroke-width="2"/>
	<line x1="142" y1="245" x2="220" y2="245" stroke="#66c2a5" stroke-width="1"/>
	<text x="149" y="237.7" fill="#000000" font-family="Verdana" font-size="12">CAN HAVE</text>
</g>

<!-- Association HAS -->
<line x1="320" y1="541" x2="181" y2="541" stroke="#66c2a5" stroke-width="2"/>
<text x="243" y="558.0" fill="#d53e4f" font-family="Verdana" font-size="12">1,1</text>
<line x1="69" y1="541" x2="181" y2="541" stroke="#66c2a5" stroke-width="2"/>
<text x="134" y="558.0" fill="#d53e4f" font-family="Verdana" font-size="12">1,1</text>
<g id="association-HAS">
	<path d="M 187 516 a 14 14 90 0 1 14 14 V 541 h -40 V 530 a 14 14 90 0 1 14 -14" fill="#abdda4" stroke="#abdda4" stroke-width="0"/>
	<path d="M 201 541.0 v 11 a 14 14 90 0 1 -14 14 H 175 a 14 14 90 0 1 -14 -14 V 541.0 H 40" fill="#e6f598" stroke="#e6f598" stroke-width="0"/>
	<rect x="161" y="516" width="40" height="50" fill="none" rx="14" stroke="#66c2a5" stroke-width="2"/>
	<line x1="161" y1="541" x2="201" y2="541" stroke="#66c2a5" stroke-width="1"/>
	<text x="168" y="533.7" fill="#000000" font-family="Verdana" font-size="12">HAS</text>
</g>

<!-- Association POSSESS -->
<line x1="69" y1="541" x2="69" y2="245" stroke="#66c2a5" stroke-width="2"/>
<text x="74.0" y="287" fill="#d53e4f" font-family="Verdana" font-size="12">0,N</text>
<line x1="69" y1="102" x2="69" y2="245" stroke="#66c2a5" stroke-width="2"/>
<text x="74.0" y="178" fill="#d53e4f" font-family="Verdana" font-size="12">1,1</text>
<g id="association-POSSESS">
	<path d="M 91 220 a 14 14 90 0 1 14 14 V 245 h -72 V 234 a 14 14 90 0 1 14 -14" fill="#abdda4" stroke="#abdda4" stroke-width="0"/>
	<path d="M 105 245.0 v 11 a 14 14 90 0 1 -14 14 H 47 a 14 14 90 0 1 -14 -14 V 245.0 H 72" fill="#e6f598" stroke="#e6f598" stroke-width="0"/>
	<rect x="33" y="220" width="72" height="50" fill="none" rx="14" stroke="#66c2a5" stroke-width="2"/>
	<line x1="33" y1="245" x2="105" y2="245" stroke="#66c2a5" stroke-width="1"/>
	<text x="40" y="237.7" fill="#000000" font-family="Verdana" font-size="12">POSSESS</text>
</g>

<!-- Entity CUSTOMER -->
<g id="entity-CUSTOMER">
	<g id="frame-CUSTOMER">
		<rect x="269" y="448" width="102" height="25" fill="#fdae61" stroke="#fdae61" stroke-width="0"/>
		<rect x="269" y="473.0" width="102" height="161" fill="#fee08b" stroke="#fee08b" stroke-width="0"/>
		<rect x="269" y="448" width="102" height="186" fill="none" stroke="#f46d43" stroke-width="2"/>
		<line x1="269" y1="473" x2="371" y2="473" stroke="#f46d43" stroke-width="1"/>
	</g>
	<text x="285" y="465.7" fill="#000000" font-family="Verdana" font-size="12">CUSTOMER</text>
	<text x="274" y="490.7" fill="#000000" font-family="Verdana" font-size="12">ref_customer</text>
	<line x1="274" y1="493" x2="355" y2="493" stroke="#000000" stroke-width="1"/>
	<text x="274" y="507.7" fill="#000000" font-family="Verdana" font-size="12">email</text>
	<text x="274" y="524.7" fill="#000000" font-family="Verdana" font-size="12">password</text>
	<text x="274" y="541.8" fill="#000000" font-family="Verdana" font-size="12">firstname</text>
	<text x="274" y="558.8" fill="#000000" font-family="Verdana" font-size="12">lastname</text>
	<text x="274" y="575.8" fill="#000000" font-family="Verdana" font-size="12">phone_number</text>
	<text x="274" y="592.8" fill="#000000" font-family="Verdana" font-size="12">photo</text>
	<text x="274" y="609.8" fill="#000000" font-family="Verdana" font-size="12">created_at</text>
	<text x="274" y="626.8" fill="#000000" font-family="Verdana" font-size="12">update_at</text>
</g>

<!-- Entity PLANT -->
<g id="entity-PLANT">
	<g id="frame-PLANT">
		<rect x="143" y="26" width="76" height="25" fill="#fdae61" stroke="#fdae61" stroke-width="0"/>
		<rect x="143" y="51.0" width="76" height="127" fill="#fee08b" stroke="#fee08b" stroke-width="0"/>
		<rect x="143" y="26" width="76" height="152" fill="none" stroke="#f46d43" stroke-width="2"/>
		<line x1="143" y1="51" x2="219" y2="51" stroke="#f46d43" stroke-width="1"/>
	</g>
	<text x="161" y="43.7" fill="#000000" font-family="Verdana" font-size="12">PLANT</text>
	<text x="148" y="68.7" fill="#000000" font-family="Verdana" font-size="12">ref_plant</text>
	<line x1="148" y1="71" x2="203" y2="71" stroke="#000000" stroke-width="1"/>
	<text x="148" y="85.7" fill="#000000" font-family="Verdana" font-size="12">type</text>
	<text x="148" y="102.8" fill="#000000" font-family="Verdana" font-size="12">notes</text>
	<text x="148" y="119.8" fill="#000000" font-family="Verdana" font-size="12">photo</text>
	<text x="148" y="136.8" fill="#000000" font-family="Verdana" font-size="12">created_at</text>
	<text x="148" y="153.8" fill="#000000" font-family="Verdana" font-size="12">update_at</text>
	<text x="148" y="170.8" fill="#000000" font-family="Verdana" font-size="12">validation</text>
</g>

<!-- Entity PHOTO -->
<g id="entity-PHOTO">
	<g id="frame-PHOTO">
		<rect x="31" y="43" width="76" height="25" fill="#fdae61" stroke="#fdae61" stroke-width="0"/>
		<rect x="31" y="68.0" width="76" height="93" fill="#fee08b" stroke="#fee08b" stroke-width="0"/>
		<rect x="31" y="43" width="76" height="118" fill="none" stroke="#f46d43" stroke-width="2"/>
		<line x1="31" y1="68" x2="107" y2="68" stroke="#f46d43" stroke-width="1"/>
	</g>
	<text x="47" y="60.7" fill="#000000" font-family="Verdana" font-size="12">PHOTO</text>
	<text x="36" y="85.7" fill="#000000" font-family="Verdana" font-size="12">ref_photo</text>
	<line x1="36" y1="88" x2="96" y2="88" stroke="#000000" stroke-width="1"/>
	<text x="36" y="102.8" fill="#000000" font-family="Verdana" font-size="12">photo</text>
	<text x="36" y="119.8" fill="#000000" font-family="Verdana" font-size="12">created_at</text>
	<text x="36" y="136.8" fill="#000000" font-family="Verdana" font-size="12">update_at</text>
	<text x="36" y="153.8" fill="#000000" font-family="Verdana" font-size="12">validation</text>
</g>

<!-- Entity ROLE -->
<g id="entity-ROLE">
	<g id="frame-ROLE">
		<rect x="291" y="68" width="58" height="25" fill="#fdae61" stroke="#fdae61" stroke-width="0"/>
		<rect x="291" y="93.0" width="58" height="43" fill="#fee08b" stroke="#fee08b" stroke-width="0"/>
		<rect x="291" y="68" width="58" height="68" fill="none" stroke="#f46d43" stroke-width="2"/>
		<line x1="291" y1="93" x2="349" y2="93" stroke="#f46d43" stroke-width="1"/>
	</g>
	<text x="303" y="85.7" fill="#000000" font-family="Verdana" font-size="12">ROLE</text>
	<text x="296" y="110.8" fill="#000000" font-family="Verdana" font-size="12">ref_role</text>
	<line x1="296" y1="113" x2="344" y2="113" stroke="#000000" stroke-width="1"/>
	<text x="296" y="127.8" fill="#000000" font-family="Verdana" font-size="12">role</text>
</g>

<!-- Entity ANIMAL -->
<g id="entity-ANIMAL">
	<g id="frame-ANIMAL">
		<rect x="415" y="9" width="76" height="25" fill="#fdae61" stroke="#fdae61" stroke-width="0"/>
		<rect x="415" y="34.0" width="76" height="161" fill="#fee08b" stroke="#fee08b" stroke-width="0"/>
		<rect x="415" y="9" width="76" height="186" fill="none" stroke="#f46d43" stroke-width="2"/>
		<line x1="415" y1="34" x2="491" y2="34" stroke="#f46d43" stroke-width="1"/>
	</g>
	<text x="429" y="26.7" fill="#000000" font-family="Verdana" font-size="12">ANIMAL</text>
	<text x="420" y="51.7" fill="#000000" font-family="Verdana" font-size="12">ref_animal</text>
	<line x1="420" y1="54" x2="485" y2="54" stroke="#000000" stroke-width="1"/>
	<text x="420" y="68.7" fill="#000000" font-family="Verdana" font-size="12">type</text>
	<text x="420" y="85.7" fill="#000000" font-family="Verdana" font-size="12">race</text>
	<text x="420" y="102.8" fill="#000000" font-family="Verdana" font-size="12">diseases</text>
	<text x="420" y="119.8" fill="#000000" font-family="Verdana" font-size="12">notes</text>
	<text x="420" y="136.8" fill="#000000" font-family="Verdana" font-size="12">photo</text>
	<text x="420" y="153.8" fill="#000000" font-family="Verdana" font-size="12">created_at</text>
	<text x="420" y="170.8" fill="#000000" font-family="Verdana" font-size="12">update_at</text>
	<text x="420" y="187.8" fill="#000000" font-family="Verdana" font-size="12">validation</text>
</g>

<!-- Entity HOUSE -->
<g id="entity-HOUSE">
	<g id="frame-HOUSE">
		<rect x="9" y="295" width="120" height="25" fill="#fdae61" stroke="#fdae61" stroke-width="0"/>
		<rect x="9" y="320.0" width="120" height="467" fill="#fee08b" stroke="#fee08b" stroke-width="0"/>
		<rect x="9" y="295" width="120" height="492" fill="none" stroke="#f46d43" stroke-width="2"/>
		<line x1="9" y1="320" x2="129" y2="320" stroke="#f46d43" stroke-width="1"/>
	</g>
	<text x="47" y="312.7" fill="#000000" font-family="Verdana" font-size="12">HOUSE</text>
	<text x="14" y="337.7" fill="#000000" font-family="Verdana" font-size="12">ref_house</text>
	<line x1="14" y1="340" x2="75" y2="340" stroke="#000000" stroke-width="1"/>
	<text x="14" y="354.7" fill="#000000" font-family="Verdana" font-size="12">address</text>
	<text x="14" y="371.7" fill="#000000" font-family="Verdana" font-size="12">zip_code</text>
	<text x="14" y="388.7" fill="#000000" font-family="Verdana" font-size="12">city</text>
	<text x="14" y="405.7" fill="#000000" font-family="Verdana" font-size="12">type</text>
	<text x="14" y="422.7" fill="#000000" font-family="Verdana" font-size="12">title</text>
	<text x="14" y="439.7" fill="#000000" font-family="Verdana" font-size="12">nb_rooms</text>
	<text x="14" y="456.7" fill="#000000" font-family="Verdana" font-size="12">nb_bedrooms</text>
	<text x="14" y="473.7" fill="#000000" font-family="Verdana" font-size="12">surface</text>
	<text x="14" y="490.7" fill="#000000" font-family="Verdana" font-size="12">area</text>
	<text x="14" y="507.7" fill="#000000" font-family="Verdana" font-size="12">floor</text>
	<text x="14" y="524.7" fill="#000000" font-family="Verdana" font-size="12">description</text>
	<text x="14" y="541.8" fill="#000000" font-family="Verdana" font-size="12">latitude</text>
	<text x="14" y="558.8" fill="#000000" font-family="Verdana" font-size="12">longitude</text>
	<text x="14" y="575.8" fill="#000000" font-family="Verdana" font-size="12">map</text>
	<text x="14" y="592.8" fill="#000000" font-family="Verdana" font-size="12">internet</text>
	<text x="14" y="609.8" fill="#000000" font-family="Verdana" font-size="12">washing_machine</text>
	<text x="14" y="626.8" fill="#000000" font-family="Verdana" font-size="12">tv</text>
	<text x="14" y="643.8" fill="#000000" font-family="Verdana" font-size="12">hoven</text>
	<text x="14" y="660.8" fill="#000000" font-family="Verdana" font-size="12">microwave</text>
	<text x="14" y="677.8" fill="#000000" font-family="Verdana" font-size="12">dishwasher</text>
	<text x="14" y="694.8" fill="#000000" font-family="Verdana" font-size="12">bathtub</text>
	<text x="14" y="711.8" fill="#000000" font-family="Verdana" font-size="12">shower</text>
	<text x="14" y="728.8" fill="#000000" font-family="Verdana" font-size="12">parking</text>
	<text x="14" y="745.8" fill="#000000" font-family="Verdana" font-size="12">created_at</text>
	<text x="14" y="762.8" fill="#000000" font-family="Verdana" font-size="12">update_at</text>
	<text x="14" y="779.8" fill="#000000" font-family="Verdana" font-size="12">validation</text>
</g>

<!-- Entity HOUSE_TYPE -->
<g id="entity-HOUSE_TYPE">
	<g id="frame-HOUSE_TYPE">
		<rect x="128" y="812" width="106" height="25" fill="#fdae61" stroke="#fdae61" stroke-width="0"/>
		<rect x="128" y="837.0" width="106" height="43" fill="#fee08b" stroke="#fee08b" stroke-width="0"/>
		<rect x="128" y="812" width="106" height="68" fill="none" stroke="#f46d43" stroke-width="2"/>
		<line x1="128" y1="837" x2="234" y2="837" stroke="#f46d43" stroke-width="1"/>
	</g>
	<text x="140" y="829.7" fill="#000000" font-family="Verdana" font-size="12">HOUSE_TYPE</text>
	<text x="133" y="854.8" fill="#000000" font-family="Verdana" font-size="12">ref_house_type</text>
	<line x1="133" y1="857" x2="228" y2="857" stroke="#000000" stroke-width="1"/>
	<text x="133" y="871.8" fill="#000000" font-family="Verdana" font-size="12">type</text>
</g>

<!-- Entity ABSENTEE -->
<g id="entity-ABSENTEE">
	<g id="frame-ABSENTEE">
		<rect x="407" y="804" width="92" height="25" fill="#fdae61" stroke="#fdae61" stroke-width="0"/>
		<rect x="407" y="829.0" width="92" height="59" fill="#fee08b" stroke="#fee08b" stroke-width="0"/>
		<rect x="407" y="804" width="92" height="84" fill="none" stroke="#f46d43" stroke-width="2"/>
		<line x1="407" y1="829" x2="499" y2="829" stroke="#f46d43" stroke-width="1"/>
	</g>
	<text x="420" y="821.7" fill="#000000" font-family="Verdana" font-size="12">ABSENTEE</text>
	<text x="412" y="846.8" fill="#000000" font-family="Verdana" font-size="12">ref_absentee</text>
	<line x1="412" y1="849" x2="492" y2="849" stroke="#000000" stroke-width="1"/>
	<text x="412" y="863.8" fill="#000000" font-family="Verdana" font-size="12">starting_date</text>
	<text x="412" y="880.8" fill="#000000" font-family="Verdana" font-size="12">ending_date</text>
</g>

<!-- Annotations -->
<script type="text/ecmascript">
<![CDATA[
	function show(evt, text) {
		var pos = (evt.target.getAttribute("y") < 852) ? "bottom" : "top"
		var annotation = document.getElementById(pos + "_annotation_ltPV6O64")
		annotation.textContent = text
		annotation.setAttributeNS(null, "visibility", "visible");
		document.getElementById(pos + "_overlay_ltPV6O64").setAttributeNS(null, "visibility", "visible");
	}
	function hide(evt) {
		document.getElementById("top_annotation_ltPV6O64").setAttributeNS(null, "visibility", "hidden");
		document.getElementById("top_overlay_ltPV6O64").setAttributeNS(null, "visibility", "hidden");
		document.getElementById("bottom_annotation_ltPV6O64").setAttributeNS(null, "visibility", "hidden");
		document.getElementById("bottom_overlay_ltPV6O64").setAttributeNS(null, "visibility", "hidden");
	}
]]>
</script>
<rect id="top_overlay_ltPV6O64" x="0" y="0" width="508" height="40" fill="#3288bd" stroke-width="0" opacity="0.9" visibility="hidden"/>
<text id="top_annotation_ltPV6O64" text-anchor="middle" x="254.0" y="24" fill="#ffffbf" font-family="Verdana" font-size="14" visibility="hidden"></text>
<rect id="bottom_overlay_ltPV6O64" x="0" y="857" width="508" height="40" fill="#3288bd" stroke-width="0" opacity="0.9" visibility="hidden"/>
<text id="bottom_annotation_ltPV6O64" text-anchor="middle" x="254.0" y="881" fill="#ffffbf" font-family="Verdana" font-size="14" visibility="hidden"></text>
</svg>