<?xml version="1.0" standalone="no"?>
<!DOCTYPE svg PUBLIC "-//W3C//DTD SVG 1.1//EN"
"http://www.w3.org/Graphics/SVG/1.1/DTD/svg11.dtd">

<svg width="499" height="932" view_box="0 0 499 932"
xmlns="http://www.w3.org/2000/svg"
xmlns:link="http://www.w3.org/1999/xlink">\n\n<desc>Généré par Mocodo 2.3.7 le Tue, 25 Jan 2022 01:24:15</desc>

<rect id="frame" x="0" y="0" width="499" height="932" fill="#ffffbf" stroke="none" stroke-width="0"/>

<!-- Association A HOMESITTER -->
<path d="M327 382 C 284.333333333 323.333333333 284.333333333 218.666666667 327 68" fill="none" stroke="#66c2a5" stroke-width="2"/>
<text x="300.0" y="264" fill="#d53e4f" font-family="Verdana" font-size="12">0,N</text>
<path d="M327 382 C 369.666666667 323.333333333 369.666666667 218.666666667 327 68" fill="none" stroke="#66c2a5" stroke-width="2"/>
<text x="332.0" y="264" fill="#d53e4f" font-family="Verdana" font-size="12" onmouseover="show(evt,'homesitter')" onmouseout="hide(evt)" style="cursor: pointer;">0,N</text>
<path d="M 358.789130688 272.017407499 L 353.204202937 259.818695189 L 359.063492503 264.022113534 L 365.197143885 260.230237913 Z" fill="#66c2a5" stroke-width="0"/>
<g id="association-A HOMESITTER">
	<path d="M 367 43 a 14 14 90 0 1 14 14 V 68 h -108 V 57 a 14 14 90 0 1 14 -14" fill="#abdda4" stroke="#abdda4" stroke-width="0"/>
	<path d="M 381 68.0 v 11 a 14 14 90 0 1 -14 14 H 287 a 14 14 90 0 1 -14 -14 V 68.0 H 108" fill="#e6f598" stroke="#e6f598" stroke-width="0"/>
	<rect x="273" y="43" width="108" height="50" fill="none" rx="14" stroke="#66c2a5" stroke-width="2"/>
	<line x1="273" y1="68" x2="381" y2="68" stroke="#66c2a5" stroke-width="1"/>
	<text x="280" y="60.7" fill="#000000" font-family="Verdana" font-size="12">A HOMESITTER</text>
</g>

<!-- Association CAN HAVE -->
<line x1="327" y1="382" x2="327" y2="687" stroke="#66c2a5" stroke-width="2"/>
<text x="332.0" y="509" fill="#d53e4f" font-family="Verdana" font-size="12">0,N</text>
<line x1="327" y1="830" x2="327" y2="687" stroke="#66c2a5" stroke-width="2"/>
<text x="332.0" y="729" fill="#d53e4f" font-family="Verdana" font-size="12">1,1</text>
<g id="association-CAN HAVE">
	<path d="M 352 662 a 14 14 90 0 1 14 14 V 687 h -78 V 676 a 14 14 90 0 1 14 -14" fill="#abdda4" stroke="#abdda4" stroke-width="0"/>
	<path d="M 366 687.0 v 11 a 14 14 90 0 1 -14 14 H 302 a 14 14 90 0 1 -14 -14 V 687.0 H 78" fill="#e6f598" stroke="#e6f598" stroke-width="0"/>
	<rect x="288" y="662" width="78" height="50" fill="none" rx="14" stroke="#66c2a5" stroke-width="2"/>
	<line x1="288" y1="687" x2="366" y2="687" stroke="#66c2a5" stroke-width="1"/>
	<text x="295" y="679.7" fill="#000000" font-family="Verdana" font-size="12">CAN HAVE</text>
</g>

<!-- Association DF1 -->
<line x1="69" y1="382" x2="69" y2="68" stroke="#66c2a5" stroke-width="2"/>
<text x="74.0" y="119" fill="#d53e4f" font-family="Verdana" font-size="12">1,1</text>
<line x1="188" y1="68" x2="69" y2="68" stroke="#66c2a5" stroke-width="2"/>
<text x="108" y="85.0" fill="#d53e4f" font-family="Verdana" font-size="12">1,N</text>
<g id="association-DF1">
	<circle cx="69" cy="68" r="16" stroke="#66c2a5" stroke-width="2" fill="#abdda4"/>
	<text x="60" y="72.0" fill="#000000" font-family="Verdana" font-size="12">DF</text>
</g>

<!-- Association CAN BE -->
<line x1="327" y1="382" x2="188" y2="687" stroke="#66c2a5" stroke-width="2"/>
<text x="278.299803887" y="509" fill="#d53e4f" font-family="Verdana" font-size="12">0,N</text>
<line x1="188" y1="830" x2="188" y2="687" stroke="#66c2a5" stroke-width="2"/>
<text x="193.0" y="780" fill="#d53e4f" font-family="Verdana" font-size="12">1,1</text>
<g id="association-CAN BE">
	<path d="M 205 662 a 14 14 90 0 1 14 14 V 687 h -62 V 676 a 14 14 90 0 1 14 -14" fill="#abdda4" stroke="#abdda4" stroke-width="0"/>
	<path d="M 219 687.0 v 11 a 14 14 90 0 1 -14 14 H 171 a 14 14 90 0 1 -14 -14 V 687.0 H 62" fill="#e6f598" stroke="#e6f598" stroke-width="0"/>
	<rect x="157" y="662" width="62" height="50" fill="none" rx="14" stroke="#66c2a5" stroke-width="2"/>
	<line x1="157" y1="687" x2="219" y2="687" stroke="#66c2a5" stroke-width="1"/>
	<text x="164" y="679.7" fill="#000000" font-family="Verdana" font-size="12">CAN BE</text>
</g>

<!-- Association DF2 -->
<line x1="69" y1="382" x2="69" y2="687" stroke="#66c2a5" stroke-width="2"/>
<text x="74.0" y="654" fill="#d53e4f" font-family="Verdana" font-size="12">1,1</text>
<line x1="69" y1="830" x2="69" y2="687" stroke="#66c2a5" stroke-width="2"/>
<text x="74.0" y="788" fill="#d53e4f" font-family="Verdana" font-size="12">1,N</text>
<g id="association-DF2">
	<circle cx="69" cy="687" r="16" stroke="#66c2a5" stroke-width="2" fill="#abdda4"/>
	<text x="60" y="691.0" fill="#000000" font-family="Verdana" font-size="12">DF</text>
</g>

<!-- Association CAN HAVE1 -->
<line x1="327" y1="382" x2="451" y2="687" stroke="#66c2a5" stroke-width="2"/>
<text x="347.90505883" y="509" fill="#d53e4f" font-family="Verdana" font-size="12">0,N</text>
<line x1="451" y1="830" x2="451" y2="687" stroke="#66c2a5" stroke-width="2"/>
<text x="456.0" y="746" fill="#d53e4f" font-family="Verdana" font-size="12">1,1</text>
<g id="association-CAN HAVE1">
	<path d="M 476 662 a 14 14 90 0 1 14 14 V 687 h -78 V 676 a 14 14 90 0 1 14 -14" fill="#abdda4" stroke="#abdda4" stroke-width="0"/>
	<path d="M 490 687.0 v 11 a 14 14 90 0 1 -14 14 H 426 a 14 14 90 0 1 -14 -14 V 687.0 H 78" fill="#e6f598" stroke="#e6f598" stroke-width="0"/>
	<rect x="412" y="662" width="78" height="50" fill="none" rx="14" stroke="#66c2a5" stroke-width="2"/>
	<line x1="412" y1="687" x2="490" y2="687" stroke="#66c2a5" stroke-width="1"/>
	<text x="419" y="679.7" fill="#000000" font-family="Verdana" font-size="12">CAN HAVE</text>
</g>

<!-- Association HAS -->
<line x1="327" y1="382" x2="188" y2="382" stroke="#66c2a5" stroke-width="2"/>
<text x="250" y="374.0" fill="#d53e4f" font-family="Verdana" font-size="12">1,1</text>
<line x1="69" y1="382" x2="188" y2="382" stroke="#66c2a5" stroke-width="2"/>
<text x="134" y="399.0" fill="#d53e4f" font-family="Verdana" font-size="12">1,1</text>
<g id="association-HAS">
	<path d="M 194 357 a 14 14 90 0 1 14 14 V 382 h -40 V 371 a 14 14 90 0 1 14 -14" fill="#abdda4" stroke="#abdda4" stroke-width="0"/>
	<path d="M 208 382.0 v 11 a 14 14 90 0 1 -14 14 H 182 a 14 14 90 0 1 -14 -14 V 382.0 H 40" fill="#e6f598" stroke="#e6f598" stroke-width="0"/>
	<rect x="168" y="357" width="40" height="50" fill="none" rx="14" stroke="#66c2a5" stroke-width="2"/>
	<line x1="168" y1="382" x2="208" y2="382" stroke="#66c2a5" stroke-width="1"/>
	<text x="175" y="374.7" fill="#000000" font-family="Verdana" font-size="12">HAS</text>
</g>

<!-- Association POSSESS -->
<line x1="327" y1="382" x2="451" y2="382" stroke="#66c2a5" stroke-width="2"/>
<text x="383" y="374.0" fill="#d53e4f" font-family="Verdana" font-size="12">0,N</text>
<line x1="451" y1="68" x2="451" y2="382" stroke="#66c2a5" stroke-width="2"/>
<text x="456.0" y="144" fill="#d53e4f" font-family="Verdana" font-size="12">1,1</text>
<g id="association-POSSESS">
	<path d="M 473 357 a 14 14 90 0 1 14 14 V 382 h -72 V 371 a 14 14 90 0 1 14 -14" fill="#abdda4" stroke="#abdda4" stroke-width="0"/>
	<path d="M 487 382.0 v 11 a 14 14 90 0 1 -14 14 H 429 a 14 14 90 0 1 -14 -14 V 382.0 H 72" fill="#e6f598" stroke="#e6f598" stroke-width="0"/>
	<rect x="415" y="357" width="72" height="50" fill="none" rx="14" stroke="#66c2a5" stroke-width="2"/>
	<line x1="415" y1="382" x2="487" y2="382" stroke="#66c2a5" stroke-width="1"/>
	<text x="422" y="374.7" fill="#000000" font-family="Verdana" font-size="12">POSSESS</text>
</g>

<!-- Entity CUSTOMER -->
<g id="entity-CUSTOMER">
	<g id="frame-CUSTOMER">
		<rect x="276" y="272" width="102" height="25" fill="#fdae61" stroke="#fdae61" stroke-width="0"/>
		<rect x="276" y="297.0" width="102" height="195" fill="#fee08b" stroke="#fee08b" stroke-width="0"/>
		<rect x="276" y="272" width="102" height="220" fill="none" stroke="#f46d43" stroke-width="2"/>
		<line x1="276" y1="297" x2="378" y2="297" stroke="#f46d43" stroke-width="1"/>
	</g>
	<text x="292" y="289.7" fill="#000000" font-family="Verdana" font-size="12">CUSTOMER</text>
	<text x="281" y="314.7" fill="#000000" font-family="Verdana" font-size="12">ref_customer</text>
	<line x1="281" y1="317" x2="362" y2="317" stroke="#000000" stroke-width="1"/>
	<text x="281" y="331.7" fill="#000000" font-family="Verdana" font-size="12">email</text>
	<text x="281" y="348.7" fill="#000000" font-family="Verdana" font-size="12">password</text>
	<text x="281" y="365.7" fill="#000000" font-family="Verdana" font-size="12">firstname</text>
	<text x="281" y="382.8" fill="#000000" font-family="Verdana" font-size="12">lastname</text>
	<text x="281" y="399.8" fill="#000000" font-family="Verdana" font-size="12">pseudo</text>
	<text x="281" y="416.8" fill="#000000" font-family="Verdana" font-size="12">phone_number</text>
	<text x="281" y="433.8" fill="#000000" font-family="Verdana" font-size="12">avatar</text>
	<text x="281" y="450.8" fill="#000000" font-family="Verdana" font-size="12">isAdmin</text>
	<text x="281" y="467.8" fill="#000000" font-family="Verdana" font-size="12">created_at</text>
	<text x="281" y="484.8" fill="#000000" font-family="Verdana" font-size="12">update_at</text>
</g>

<!-- Entity PHOTO -->
<g id="entity-PHOTO">
	<g id="frame-PHOTO">
		<rect x="413" y="9" width="76" height="25" fill="#fdae61" stroke="#fdae61" stroke-width="0"/>
		<rect x="413" y="34.0" width="76" height="93" fill="#fee08b" stroke="#fee08b" stroke-width="0"/>
		<rect x="413" y="9" width="76" height="118" fill="none" stroke="#f46d43" stroke-width="2"/>
		<line x1="413" y1="34" x2="489" y2="34" stroke="#f46d43" stroke-width="1"/>
	</g>
	<text x="429" y="26.7" fill="#000000" font-family="Verdana" font-size="12">PHOTO</text>
	<text x="418" y="51.7" fill="#000000" font-family="Verdana" font-size="12">ref_photo</text>
	<line x1="418" y1="54" x2="478" y2="54" stroke="#000000" stroke-width="1"/>
	<text x="418" y="68.8" fill="#000000" font-family="Verdana" font-size="12">photo</text>
	<text x="418" y="85.8" fill="#000000" font-family="Verdana" font-size="12">created_at</text>
	<text x="418" y="102.8" fill="#000000" font-family="Verdana" font-size="12">update_at</text>
	<text x="418" y="119.8" fill="#000000" font-family="Verdana" font-size="12">validation</text>
</g>

<!-- Entity HOUSE -->
<g id="entity-HOUSE">
	<g id="frame-HOUSE">
		<rect x="9" y="127" width="120" height="25" fill="#fdae61" stroke="#fdae61" stroke-width="0"/>
		<rect x="9" y="152.0" width="120" height="485" fill="#fee08b" stroke="#fee08b" stroke-width="0"/>
		<rect x="9" y="127" width="120" height="510" fill="none" stroke="#f46d43" stroke-width="2"/>
		<line x1="9" y1="152" x2="129" y2="152" stroke="#f46d43" stroke-width="1"/>
	</g>
	<text x="47" y="144.7" fill="#000000" font-family="Verdana" font-size="12">HOUSE</text>
	<text x="14" y="169.7" fill="#000000" font-family="Verdana" font-size="12">ref_house</text>
	<line x1="14" y1="172" x2="75" y2="172" stroke="#000000" stroke-width="1"/>
	<text x="14" y="186.7" fill="#000000" font-family="Verdana" font-size="12">address</text>
	<text x="14" y="203.7" fill="#000000" font-family="Verdana" font-size="12">zip_code</text>
	<text x="14" y="220.7" fill="#000000" font-family="Verdana" font-size="12">city</text>
	<text x="14" y="237.7" fill="#000000" font-family="Verdana" font-size="12">country</text>
	<text x="14" y="254.7" fill="#000000" font-family="Verdana" font-size="12">type</text>
	<text x="14" y="271.7" fill="#000000" font-family="Verdana" font-size="12">title</text>
	<text x="14" y="288.7" fill="#000000" font-family="Verdana" font-size="12">nb_rooms</text>
	<text x="14" y="305.7" fill="#000000" font-family="Verdana" font-size="12">nb_bedrooms</text>
	<text x="14" y="322.7" fill="#000000" font-family="Verdana" font-size="12">surface</text>
	<text x="14" y="339.7" fill="#000000" font-family="Verdana" font-size="12">area</text>
	<text x="14" y="356.7" fill="#000000" font-family="Verdana" font-size="12">floor</text>
	<text x="14" y="373.7" fill="#000000" font-family="Verdana" font-size="12">description</text>
	<text x="14" y="390.8" fill="#000000" font-family="Verdana" font-size="12">latitude</text>
	<text x="14" y="407.8" fill="#000000" font-family="Verdana" font-size="12">longitude</text>
	<text x="14" y="424.8" fill="#000000" font-family="Verdana" font-size="12">map</text>
	<text x="14" y="441.8" fill="#000000" font-family="Verdana" font-size="12">internet</text>
	<text x="14" y="458.8" fill="#000000" font-family="Verdana" font-size="12">washing_machine</text>
	<text x="14" y="475.8" fill="#000000" font-family="Verdana" font-size="12">tv</text>
	<text x="14" y="492.8" fill="#000000" font-family="Verdana" font-size="12">hoven</text>
	<text x="14" y="509.8" fill="#000000" font-family="Verdana" font-size="12">microwave</text>
	<text x="14" y="526.8" fill="#000000" font-family="Verdana" font-size="12">dishwasher</text>
	<text x="14" y="543.8" fill="#000000" font-family="Verdana" font-size="12">bathtub</text>
	<text x="14" y="560.8" fill="#000000" font-family="Verdana" font-size="12">shower</text>
	<text x="14" y="577.8" fill="#000000" font-family="Verdana" font-size="12">parking</text>
	<text x="14" y="594.8" fill="#000000" font-family="Verdana" font-size="12">created_at</text>
	<text x="14" y="611.8" fill="#000000" font-family="Verdana" font-size="12">update_at</text>
	<text x="14" y="628.8" fill="#000000" font-family="Verdana" font-size="12">validation</text>
</g>

<!-- Entity PLANT -->
<g id="entity-PLANT">
	<g id="frame-PLANT">
		<rect x="413" y="754" width="76" height="25" fill="#fdae61" stroke="#fdae61" stroke-width="0"/>
		<rect x="413" y="779.0" width="76" height="127" fill="#fee08b" stroke="#fee08b" stroke-width="0"/>
		<rect x="413" y="754" width="76" height="152" fill="none" stroke="#f46d43" stroke-width="2"/>
		<line x1="413" y1="779" x2="489" y2="779" stroke="#f46d43" stroke-width="1"/>
	</g>
	<text x="431" y="771.7" fill="#000000" font-family="Verdana" font-size="12">PLANT</text>
	<text x="418" y="796.7" fill="#000000" font-family="Verdana" font-size="12">ref_plant</text>
	<line x1="418" y1="799" x2="473" y2="799" stroke="#000000" stroke-width="1"/>
	<text x="418" y="813.7" fill="#000000" font-family="Verdana" font-size="12">type</text>
	<text x="418" y="830.8" fill="#000000" font-family="Verdana" font-size="12">notes</text>
	<text x="418" y="847.8" fill="#000000" font-family="Verdana" font-size="12">photo</text>
	<text x="418" y="864.8" fill="#000000" font-family="Verdana" font-size="12">created_at</text>
	<text x="418" y="881.8" fill="#000000" font-family="Verdana" font-size="12">update_at</text>
	<text x="418" y="898.8" fill="#000000" font-family="Verdana" font-size="12">validation</text>
</g>

<!-- Entity ANIMAL -->
<g id="entity-ANIMAL">
	<g id="frame-ANIMAL">
		<rect x="289" y="737" width="76" height="25" fill="#fdae61" stroke="#fdae61" stroke-width="0"/>
		<rect x="289" y="762.0" width="76" height="161" fill="#fee08b" stroke="#fee08b" stroke-width="0"/>
		<rect x="289" y="737" width="76" height="186" fill="none" stroke="#f46d43" stroke-width="2"/>
		<line x1="289" y1="762" x2="365" y2="762" stroke="#f46d43" stroke-width="1"/>
	</g>
	<text x="303" y="754.7" fill="#000000" font-family="Verdana" font-size="12">ANIMAL</text>
	<text x="294" y="779.7" fill="#000000" font-family="Verdana" font-size="12">ref_animal</text>
	<line x1="294" y1="782" x2="359" y2="782" stroke="#000000" stroke-width="1"/>
	<text x="294" y="796.7" fill="#000000" font-family="Verdana" font-size="12">type</text>
	<text x="294" y="813.7" fill="#000000" font-family="Verdana" font-size="12">race</text>
	<text x="294" y="830.8" fill="#000000" font-family="Verdana" font-size="12">diseases</text>
	<text x="294" y="847.8" fill="#000000" font-family="Verdana" font-size="12">notes</text>
	<text x="294" y="864.8" fill="#000000" font-family="Verdana" font-size="12">photo</text>
	<text x="294" y="881.8" fill="#000000" font-family="Verdana" font-size="12">created_at</text>
	<text x="294" y="898.8" fill="#000000" font-family="Verdana" font-size="12">update_at</text>
	<text x="294" y="915.8" fill="#000000" font-family="Verdana" font-size="12">validation</text>
</g>

<!-- Entity COUNTRY -->
<g id="entity-COUNTRY">
	<g id="frame-COUNTRY">
		<rect x="28" y="796" width="82" height="25" fill="#fdae61" stroke="#fdae61" stroke-width="0"/>
		<rect x="28" y="821.0" width="82" height="43" fill="#fee08b" stroke="#fee08b" stroke-width="0"/>
		<rect x="28" y="796" width="82" height="68" fill="none" stroke="#f46d43" stroke-width="2"/>
		<line x1="28" y1="821" x2="110" y2="821" stroke="#f46d43" stroke-width="1"/>
	</g>
	<text x="39" y="813.7" fill="#000000" font-family="Verdana" font-size="12">COUNTRY</text>
	<text x="33" y="838.8" fill="#000000" font-family="Verdana" font-size="12">ref_country</text>
	<line x1="33" y1="841" x2="104" y2="841" stroke="#000000" stroke-width="1"/>
	<text x="33" y="855.8" fill="#000000" font-family="Verdana" font-size="12">country</text>
</g>

<!-- Entity HOUSE_TYPE -->
<g id="entity-HOUSE_TYPE">
	<g id="frame-HOUSE_TYPE">
		<rect x="135" y="34" width="106" height="25" fill="#fdae61" stroke="#fdae61" stroke-width="0"/>
		<rect x="135" y="59.0" width="106" height="43" fill="#fee08b" stroke="#fee08b" stroke-width="0"/>
		<rect x="135" y="34" width="106" height="68" fill="none" stroke="#f46d43" stroke-width="2"/>
		<line x1="135" y1="59" x2="241" y2="59" stroke="#f46d43" stroke-width="1"/>
	</g>
	<text x="147" y="51.7" fill="#000000" font-family="Verdana" font-size="12">HOUSE_TYPE</text>
	<text x="140" y="76.8" fill="#000000" font-family="Verdana" font-size="12">ref_house_type</text>
	<line x1="140" y1="79" x2="235" y2="79" stroke="#000000" stroke-width="1"/>
	<text x="140" y="93.8" fill="#000000" font-family="Verdana" font-size="12">type</text>
</g>

<!-- Entity ABSENTEE -->
<g id="entity-ABSENTEE">
	<g id="frame-ABSENTEE">
		<rect x="142" y="788" width="92" height="25" fill="#fdae61" stroke="#fdae61" stroke-width="0"/>
		<rect x="142" y="813.0" width="92" height="59" fill="#fee08b" stroke="#fee08b" stroke-width="0"/>
		<rect x="142" y="788" width="92" height="84" fill="none" stroke="#f46d43" stroke-width="2"/>
		<line x1="142" y1="813" x2="234" y2="813" stroke="#f46d43" stroke-width="1"/>
	</g>
	<text x="155" y="805.7" fill="#000000" font-family="Verdana" font-size="12">ABSENTEE</text>
	<text x="147" y="830.8" fill="#000000" font-family="Verdana" font-size="12">ref_absentee</text>
	<line x1="147" y1="833" x2="227" y2="833" stroke="#000000" stroke-width="1"/>
	<text x="147" y="847.8" fill="#000000" font-family="Verdana" font-size="12">starting_date</text>
	<text x="147" y="864.8" fill="#000000" font-family="Verdana" font-size="12">ending_date</text>
</g>

<!-- Annotations -->
<script type="text/ecmascript">
<![CDATA[
	function show(evt, text) {
		var pos = (evt.target.getAttribute("y") < 887) ? "bottom" : "top"
		var annotation = document.getElementById(pos + "_annotation_Qnb7cjj9")
		annotation.textContent = text
		annotation.setAttributeNS(null, "visibility", "visible");
		document.getElementById(pos + "_overlay_Qnb7cjj9").setAttributeNS(null, "visibility", "visible");
	}
	function hide(evt) {
		document.getElementById("top_annotation_Qnb7cjj9").setAttributeNS(null, "visibility", "hidden");
		document.getElementById("top_overlay_Qnb7cjj9").setAttributeNS(null, "visibility", "hidden");
		document.getElementById("bottom_annotation_Qnb7cjj9").setAttributeNS(null, "visibility", "hidden");
		document.getElementById("bottom_overlay_Qnb7cjj9").setAttributeNS(null, "visibility", "hidden");
	}
]]>
</script>
<rect id="top_overlay_Qnb7cjj9" x="0" y="0" width="499" height="40" fill="#3288bd" stroke-width="0" opacity="0.9" visibility="hidden"/>
<text id="top_annotation_Qnb7cjj9" text-anchor="middle" x="249.5" y="24" fill="#ffffbf" font-family="Verdana" font-size="14" visibility="hidden"></text>
<rect id="bottom_overlay_Qnb7cjj9" x="0" y="892" width="499" height="40" fill="#3288bd" stroke-width="0" opacity="0.9" visibility="hidden"/>
<text id="bottom_annotation_Qnb7cjj9" text-anchor="middle" x="249.5" y="916" fill="#ffffbf" font-family="Verdana" font-size="14" visibility="hidden"></text>
</svg>